<svg width="50" height="50" viewBox="0 0 50 50" fill="none" xmlns="http://www.w3.org/2000/svg">
<path d="M36.97 33.5605V21.1905C36.97 18.4005 36.15 15.6405 34.46 13.4205C32.76 11.1805 29.96 9.10047 25.45 8.98047H25.05C20.54 9.10047 17.75 11.1805 16.04 13.4205C14.35 15.6405 13 18.0305 13 20.8205V33.8205C13 38.3305 6 40.8205 6 40.8205H25H44C44 40.8205 36.97 38.0705 36.97 33.5605Z" stroke="white" stroke-width="2" stroke-miterlimit="10" stroke-linecap="round" stroke-linejoin="round"/>
<path d="M31.0801 40.8203C30.1201 42.9003 28.0101 44.3403 25.5701 44.3403C23.1301 44.3403 21.0301 42.9003 20.0601 40.8203" stroke="white" stroke-width="2" stroke-miterlimit="10" stroke-linejoin="round"/>
<path d="M27.66 9.21016V8.16016C27.66 6.78016 26.54 5.66016 25.16 5.66016C23.78 5.66016 22.66 6.78016 22.66 8.16016V9.25016" stroke="white" stroke-width="2" stroke-miterlimit="10" stroke-linecap="round" stroke-linejoin="round"/>
</svg>
