<?xml version="1.0" encoding="utf-8"?>
<!-- Generator: Adobe Illustrator 27.5.0, SVG Export Plug-In . SVG Version: 6.00 Build 0)  -->
<svg version="1.1" id="Layer_1" xmlns="http://www.w3.org/2000/svg" xmlns:xlink="http://www.w3.org/1999/xlink" x="0px" y="0px"
	 width="48.2px" height="42.2px" viewBox="0 0 48.2 42.2" style="enable-background:new 0 0 48.2 42.2;" xml:space="preserve">
<style type="text/css">
	.st0{fill:none;stroke:#020203;stroke-width:2;stroke-miterlimit:10;}
	.st1{fill:none;stroke:#020203;stroke-width:2;stroke-linecap:round;stroke-miterlimit:10;}
</style>
<g>
	<path class="st0" d="M12.4,37.5c0,1.8,1.5,3.3,3.3,3.3c1.8,0,3.3-1.5,3.3-3.3c0-1.8-1.5-3.3-3.3-3.3C13.9,34.1,12.4,35.6,12.4,37.5
		z"/>
	<path class="st0" d="M34.6,37.5c0,1.8,1.5,3.3,3.3,3.3c1.8,0,3.3-1.5,3.3-3.3c0-1.8-1.5-3.3-3.3-3.3C36.1,34.1,34.6,35.6,34.6,37.5
		z"/>
	<path class="st1" d="M46.8,6.8l-4.4,18.9"/>
	<path class="st1" d="M42.3,25.7H11.3"/>
	<path class="st1" d="M5.7,1.3l5.5,24.4l1.1,5.5h28.8"/>
	<path class="st1" d="M5.7,1.3H1.3"/>
	<path class="st1" d="M46.8,6.8H14.6"/>
</g>
</svg>
