<?xml version="1.0" encoding="utf-8"?>
<!-- Generator: Adobe Illustrator 26.3.1, SVG Export Plug-In . SVG Version: 6.00 Build 0)  -->
<svg version="1.1" id="Layer_1" xmlns="http://www.w3.org/2000/svg" xmlns:xlink="http://www.w3.org/1999/xlink" x="0px" y="0px"
	 viewBox="0 0 50 50" style="enable-background:new 0 0 50 50;" xml:space="preserve">
<style type="text/css">
	.st0{fill:none;stroke:#000000;stroke-width:2;stroke-linecap:round;stroke-linejoin:round;stroke-miterlimit:10;}
	.st1{fill:none;stroke:#000000;stroke-width:2;stroke-linejoin:round;stroke-miterlimit:10;}
</style>
<g>
	<path id="XMLID_757_" class="st0" d="M36.97,33.56V21.19c0-2.79-0.82-5.55-2.51-7.77c-1.7-2.24-4.5-4.32-9.01-4.44h-0.4
		c-4.51,0.12-7.3,2.2-9.01,4.44c-1.69,2.22-3.04,4.61-3.04,7.4v13c0,4.51-7,7-7,7h19l0,0h19C44,40.82,36.97,38.07,36.97,33.56z"/>
	<path id="XMLID_755_" class="st1" d="M31.08,40.82c-0.96,2.08-3.07,3.52-5.51,3.52c-2.44,0-4.54-1.44-5.51-3.52"/>
	<path id="XMLID_754_" class="st0" d="M27.66,9.21V8.16c0-1.38-1.12-2.5-2.5-2.5l0,0c-1.38,0-2.5,1.12-2.5,2.5v1.09"/>
</g>
</svg>
