<?xml version="1.0" encoding="UTF-8"?><svg id="Layer_2" xmlns="http://www.w3.org/2000/svg" viewBox="0 0 287.31 22.76"><defs><style>.cls-1{fill:#1d1d1b;}</style></defs><g id="Layer_1-2"><path class="cls-1" d="m4.23,0v8.45L12,0h5.2L7.97,10.18l9.88,12.59h-5.37L4.23,11.9v10.86H0V0h4.23Z"/><path class="cls-1" d="m43.06,17.4h-7.22l-1.66,5.37h-4.55L37.34,0h4.23l7.71,22.76h-4.55l-1.66-5.37Zm-6.02-3.9h4.81l-2.41-7.91-2.41,7.91Z"/><path class="cls-1" d="m72.83,12.59l6.31,10.18h-4.71l-6.11-9.82h-2.21v9.82h-4.23V0h8.29c4.55,0,6.93,2.7,6.93,6.47,0,2.99-1.5,5.27-4.26,6.11Zm.03-6.11c0-1.85-1.14-2.57-2.67-2.57h-4.1v5.14h4.1c1.53,0,2.67-.72,2.67-2.57Z"/><path class="cls-1" d="m92.77,0l4.13,8.84,4.13-8.84h4.55l-6.57,13.07v9.69h-4.23v-9.69l-6.57-13.07h4.55Z"/><path class="cls-1" d="m117.62,0h4.75l5.37,14.21,5.37-14.21h4.75v22.76h-4.23v-14.05l-4.36,11.97h-3.06l-4.36-11.97v14.05h-4.23V0Z"/><path class="cls-1" d="m164.13,17.4h-7.22l-1.66,5.37h-4.55l7.71-22.76h4.23l7.71,22.76h-4.55l-1.66-5.37Zm-6.02-3.9h4.81l-2.41-7.91-2.41,7.91Z"/><path class="cls-1" d="m193.89,12.59l6.31,10.18h-4.71l-6.11-9.82h-2.21v9.82h-4.23V0h8.29c4.55,0,6.93,2.7,6.93,6.47,0,2.99-1.5,5.27-4.26,6.11Zm.03-6.11c0-1.85-1.14-2.57-2.67-2.57h-4.1v5.14h4.1c1.53,0,2.67-.72,2.67-2.57Z"/><path class="cls-1" d="m217.18,0v8.45l7.77-8.45h5.2l-9.24,10.18,9.89,12.59h-5.37l-8.26-10.86v10.86h-4.23V0h4.23Z"/><path class="cls-1" d="m257.22,0v3.9h-9.85v4.78h7.9v3.9h-7.9v6.28h10.18v3.9h-14.41V0h14.08Z"/><path class="cls-1" d="m270.46,0h16.85v3.9h-6.31v18.86h-4.23V3.9h-6.31V0Z"/></g></svg>