<?xml version="1.0" encoding="utf-8"?>
<!-- Generator: Adobe Illustrator 27.8.1, SVG Export Plug-In . SVG Version: 6.00 Build 0)  -->
<svg version="1.1" id="Layer_1" xmlns="http://www.w3.org/2000/svg" xmlns:xlink="http://www.w3.org/1999/xlink" x="0px" y="0px"
	 viewBox="0 0 60 55" style="enable-background:new 0 0 60 55;" xml:space="preserve">
<style type="text/css">
	.st0{fill:#FFFFFF;}
</style>
<rect x="0.2" y="0.4" width="59.6" height="54.2"/>
<path class="st0" d="M7.9,6.4v3.7l3.4-3.7h2.3l-4.1,4.5l4.3,5.5h-2.4l-3.6-4.8v4.8H6.1v-10H7.9z"/>
<path class="st0" d="M24.9,14.1h-3.2l-0.7,2.4h-2l3.4-10h1.9l3.4,10h-2L24.9,14.1z M22.3,12.4h2.1l-1.1-3.5L22.3,12.4z"/>
<path class="st0" d="M37.6,12l2.8,4.5h-2.1l-2.7-4.3h-1v4.3h-1.9v-10h3.6c2,0,3,1.2,3,2.8C39.5,10.6,38.9,11.6,37.6,12z M37.7,9.3
	c0-0.8-0.5-1.1-1.2-1.1h-1.8v2.3h1.8C37.2,10.4,37.7,10.1,37.7,9.3z"/>
<path class="st0" d="M48.2,6.5l1.8,3.9l1.8-3.9h2L51,12.2v4.3h-1.9v-4.3l-2.9-5.7H48.2z"/>
<path class="st0" d="M6.1,22.5h2.1l2.4,6.2l2.4-6.2H15v10h-1.9v-6.2l-1.9,5.3H9.9L8,26.3v6.2H6.1V22.5z"/>
<path class="st0" d="M24.9,30.1h-3.2l-0.7,2.4h-2l3.4-10h1.9l3.4,10h-2L24.9,30.1z M22.3,28.4h2.1l-1.1-3.5L22.3,28.4z"/>
<path class="st0" d="M37.6,28l2.8,4.5h-2.1l-2.7-4.3h-1v4.3h-1.9v-10h3.6c2,0,3,1.2,3,2.8C39.5,26.6,38.9,27.6,37.6,28z M37.7,25.3
	c0-0.8-0.5-1.1-1.2-1.1h-1.8v2.3h1.8C37.2,26.4,37.7,26.1,37.7,25.3z"/>
<path class="st0" d="M48.1,22.5v3.7l3.4-3.7h2.3l-4.1,4.5l4.3,5.5h-2.4l-3.6-4.8v4.8h-1.9v-10H48.1z"/>
<path class="st0" d="M12.2,38.6v1.7H7.9v2.1h3.5v1.7H7.9v2.8h4.5v1.7H6.1v-10H12.2z"/>
<path class="st0" d="M19.7,38.6h7.4v1.7h-2.8v8.3h-1.9v-8.3h-2.8V38.6z"/>
</svg>
